<svg width="100%" viewBox="0 0 690 430" role="img" xmlns="http://www.w3.org/2000/svg">
<title>Autour du bâtiment et Service</title>
<desc>Illustration d'un bâtiment industriel entouré de techniciens de service, véhicules et équipements de maintenance</desc>
<!-- Sky -->
<rect x="0" y="0" width="680" height="260" fill="rgb(232, 237, 248)"/>
<!-- Clouds -->
<ellipse cx="120" cy="55" rx="48" ry="22" fill="rgb(240, 244, 255)"/>
<ellipse cx="155" cy="45" rx="38" ry="18" fill="rgb(240, 244, 255)"/>
<ellipse cx="90" cy="48" rx="32" ry="16" fill="rgb(240, 244, 255)"/>
<ellipse cx="520" cy="70" rx="44" ry="20" fill="rgb(240, 244, 255)"/>
<ellipse cx="558" cy="60" rx="34" ry="16" fill="rgb(240, 244, 255)"/>
<ellipse cx="492" cy="64" rx="28" ry="14" fill="rgb(240, 244, 255)"/>
<!-- Ground -->
<rect x="0" y="258" width="680" height="162" fill="rgb(212, 224, 200)"/>
<!-- Road -->
<rect x="0" y="310" width="680" height="40" fill="rgb(200, 204, 216)"/>
<line x1="0" y1="330" x2="680" y2="330" stroke-dasharray="28 18" stroke-width="2.5" stroke="white"/>
<!-- Fence -->
<line x1="60" y1="310" x2="600" y2="310" stroke-width="2" stroke="rgb(170, 176, 192)"/>
<line x1="60" y1="295" x2="600" y2="295" stroke-width="1.5" stroke="rgb(170, 176, 192)"/>
<line x1="60" y1="290" x2="60" y2="312" stroke-width="2.5" stroke="rgb(170, 176, 192)"/>
<line x1="100" y1="290" x2="100" y2="312" stroke-width="2.5" stroke="rgb(170, 176, 192)"/>
<line x1="140" y1="290" x2="140" y2="312" stroke-width="2.5" stroke="rgb(170, 176, 192)"/>
<line x1="180" y1="290" x2="180" y2="312" stroke-width="2.5" stroke="rgb(170, 176, 192)"/>
<line x1="500" y1="290" x2="500" y2="312" stroke-width="2.5" stroke="rgb(170, 176, 192)"/>
<line x1="540" y1="290" x2="540" y2="312" stroke-width="2.5" stroke="rgb(170, 176, 192)"/>
<line x1="580" y1="290" x2="580" y2="312" stroke-width="2.5" stroke="rgb(170, 176, 192)"/>
<line x1="620" y1="290" x2="620" y2="312" stroke-width="2.5" stroke="rgb(170, 176, 192)"/>
<!-- MAIN BUILDING -->
<ellipse cx="345" cy="275" rx="155" ry="18" fill="rgba(0,0,0,0.082)"/>
<rect fill="rgb(208, 216, 232)" x="200" y="110" width="290" height="170" rx="2"/>
<rect fill="rgb(187, 196, 216)" x="200" y="110" width="100" height="170"/>
<rect fill="rgb(90, 96, 112)" x="196" y="100" width="298" height="16" rx="2"/>
<rect fill="rgb(122, 128, 144)" x="250" y="82" width="60" height="20" rx="2"/>
<rect fill="rgb(106, 112, 128)" x="270" y="70" width="20" height="14" rx="1"/>
<rect fill="rgb(154, 96, 48)" x="340" y="72" width="12" height="30" rx="1"/>
<line stroke="rgb(138,138,138)" x1="346" y1="72" x2="346" y2="50" stroke-width="1.5"/>
<line stroke="rgb(138,138,138)" x1="340" y1="60" x2="352" y2="60" stroke-width="1.5"/>
<!-- Windows row 1 -->
<rect fill="rgb(168, 200, 232)" x="215" y="130" width="30" height="22" rx="1"/>
<rect fill="rgb(122, 170, 191)" x="215" y="130" width="14" height="22" rx="1"/>
<rect fill="rgb(168, 200, 232)" x="255" y="130" width="30" height="22" rx="1"/>
<rect fill="rgb(122, 170, 191)" x="255" y="130" width="14" height="22" rx="1"/>
<rect fill="rgb(168, 200, 232)" x="340" y="130" width="38" height="22" rx="1"/>
<rect fill="rgb(122, 170, 191)" x="340" y="130" width="18" height="22" rx="1"/>
<rect fill="rgb(168, 200, 232)" x="390" y="130" width="38" height="22" rx="1"/>
<rect fill="rgb(122, 170, 191)" x="390" y="130" width="18" height="22" rx="1"/>
<rect fill="rgb(168, 200, 232)" x="440" y="130" width="38" height="22" rx="1"/>
<rect fill="rgb(122, 170, 191)" x="440" y="130" width="18" height="22" rx="1"/>
<!-- Windows row 2 -->
<rect fill="rgb(168, 200, 232)" x="215" y="168" width="30" height="22" rx="1"/>
<rect fill="rgb(122, 170, 191)" x="215" y="168" width="14" height="22" rx="1"/>
<rect fill="rgb(168, 200, 232)" x="255" y="168" width="30" height="22" rx="1"/>
<rect fill="rgb(122, 170, 191)" x="255" y="168" width="14" height="22" rx="1"/>
<rect fill="rgb(168, 200, 232)" x="340" y="168" width="38" height="22" rx="1"/>
<rect fill="rgb(122, 170, 191)" x="340" y="168" width="18" height="22" rx="1"/>
<rect fill="rgb(168, 200, 232)" x="390" y="168" width="38" height="22" rx="1"/>
<rect fill="rgb(122, 170, 191)" x="390" y="168" width="18" height="22" rx="1"/>
<rect fill="rgb(168, 200, 232)" x="440" y="168" width="38" height="22" rx="1"/>
<rect fill="rgb(122, 170, 191)" x="440" y="168" width="18" height="22" rx="1"/>
<!-- Main door -->
<rect fill="rgb(74, 85, 112)" x="310" y="218" width="50" height="62" rx="2"/>
<rect fill="rgb(58, 69, 96)" x="310" y="218" width="24" height="62" rx="2"/>
<circle fill="rgb(192, 160, 48)" cx="334" cy="252" r="3"/>
<rect fill="none" stroke="rgb(106, 117, 144)" x="308" y="216" width="54" height="64" rx="2" stroke-width="2"/>
<!-- Signage -->
<rect fill="rgb(79, 70, 229)" x="295" y="204" width="80" height="16" rx="2"/>
<text x="335" y="215" text-anchor="middle" font-family="sans-serif" font-size="8" font-weight="600" fill="white">FLOWENTRA</text>
<!-- SERVICE VAN -->
<ellipse cx="110" cy="312" rx="58" ry="8" fill="rgba(0,0,0,0.082)"/>
<rect fill="rgb(240, 244, 255)" x="60" y="262" width="100" height="48" rx="4"/>
<rect fill="rgb(224, 232, 248)" x="60" y="262" width="36" height="48" rx="4"/>
<rect fill="rgb(168, 200, 232)" x="64" y="268" width="28" height="20" rx="2"/>
<rect fill="rgb(168, 200, 232)" x="104" y="268" width="22" height="16" rx="1"/>
<rect fill="rgb(168, 200, 232)" x="130" y="268" width="22" height="16" rx="1"/>
<rect fill="rgb(79, 70, 229)" x="60" y="290" width="100" height="6"/>
<circle fill="rgb(42, 42, 58)" cx="84" cy="312" r="12"/>
<circle fill="rgb(106, 106, 122)" cx="84" cy="312" r="6"/>
<circle fill="rgb(42, 42, 58)" cx="138" cy="312" r="12"/>
<circle fill="rgb(106, 106, 122)" cx="138" cy="312" r="6"/>
<rect fill="rgb(79, 70, 229)" x="102" y="273" width="52" height="14" rx="2"/>
<text x="128" y="283" text-anchor="middle" font-family="sans-serif" font-size="7" font-weight="600" fill="white">SERVICE</text>
<!-- TECHNICIAN 1 -->
<ellipse cx="170" cy="305" rx="14" ry="5" fill="rgba(0,0,0,0.082)"/>
<rect fill="rgb(79, 70, 229)" x="161" y="270" width="18" height="26" rx="3"/>
<circle fill="rgb(245, 200, 160)" cx="170" cy="264" r="9"/>
<rect fill="rgb(240, 192, 48)" x="161" y="257" width="18" height="10" rx="5"/>
<rect fill="rgb(79, 70, 229)" x="179" y="274" width="10" height="4" rx="2"/>
<rect fill="rgb(240, 240, 240)" x="187" y="268" width="10" height="14" rx="1"/>
<line stroke="rgb(144,144,160)" x1="189" y1="272" x2="195" y2="272" stroke-width="1"/>
<line stroke="rgb(144,144,160)" x1="189" y1="275" x2="195" y2="275" stroke-width="1"/>
<line stroke="rgb(144,144,160)" x1="189" y1="278" x2="195" y2="278" stroke-width="1"/>
<rect fill="rgb(42, 48, 80)" x="162" y="294" width="7" height="14" rx="2"/>
<rect fill="rgb(42, 48, 80)" x="171" y="294" width="7" height="14" rx="2"/>
<rect fill="rgb(58, 48, 48)" x="161" y="306" width="9" height="5" rx="1"/>
<rect fill="rgb(58, 48, 48)" x="170" y="306" width="9" height="5" rx="1"/>
<!-- TECHNICIAN 2 -->
<ellipse cx="520" cy="305" rx="14" ry="5" fill="rgba(0,0,0,0.082)"/>
<rect fill="rgb(42, 128, 64)" x="511" y="268" width="18" height="26" rx="3"/>
<circle fill="rgb(232, 184, 144)" cx="520" cy="262" r="9"/>
<rect fill="rgb(240, 240, 240)" x="511" y="255" width="18" height="10" rx="5"/>
<rect fill="rgb(42, 128, 64)" x="529" y="270" width="16" height="4" rx="2"/>
<rect fill="rgb(106, 112, 128)" x="542" y="260" width="28" height="36" rx="2"/>
<rect fill="rgb(74, 80, 96)" x="545" y="264" width="10" height="8" rx="1"/>
<rect fill="rgb(74, 80, 96)" x="557" y="264" width="10" height="8" rx="1"/>
<circle fill="rgb(224, 48, 48)" cx="548" cy="278" r="3"/>
<circle fill="rgb(48, 176, 48)" cx="558" cy="278" r="3"/>
<rect fill="rgb(74, 80, 96)" x="545" y="283" width="22" height="6" rx="1"/>
<rect fill="rgb(42, 48, 80)" x="512" y="292" width="7" height="14" rx="2"/>
<rect fill="rgb(42, 48, 80)" x="521" y="292" width="7" height="14" rx="2"/>
<rect fill="rgb(58, 48, 48)" x="511" y="304" width="9" height="5" rx="1"/>
<rect fill="rgb(58, 48, 48)" x="520" y="304" width="9" height="5" rx="1"/>
<!-- SECOND SMALLER BUILDING -->
<rect fill="rgb(200, 204, 216)" x="570" y="160" width="90" height="120" rx="2"/>
<rect fill="rgb(184, 188, 200)" x="570" y="160" width="32" height="120"/>
<rect fill="rgb(74, 80, 96)" x="567" y="152" width="96" height="12" rx="1"/>
<rect fill="rgb(168, 192, 216)" x="578" y="174" width="22" height="16" rx="1"/>
<rect fill="rgb(168, 192, 216)" x="608" y="174" width="22" height="16" rx="1"/>
<rect fill="rgb(168, 192, 216)" x="578" y="204" width="22" height="16" rx="1"/>
<rect fill="rgb(168, 192, 216)" x="608" y="204" width="22" height="16" rx="1"/>
<rect fill="rgb(74, 85, 112)" x="600" y="240" width="32" height="40" rx="1"/>
<!-- SMALL BUILDING left -->
<rect fill="rgb(204, 212, 192)" x="20" y="190" width="70" height="90" rx="2"/>
<rect fill="rgb(58, 64, 80)" x="18" y="183" width="74" height="10" rx="1"/>
<rect fill="rgb(168, 192, 216)" x="28" y="200" width="20" height="15" rx="1"/>
<rect fill="rgb(168, 192, 216)" x="56" y="200" width="20" height="15" rx="1"/>
<rect fill="rgb(168, 192, 216)" x="28" y="225" width="20" height="15" rx="1"/>
<rect fill="rgb(168, 192, 216)" x="56" y="225" width="20" height="15" rx="1"/>
<rect fill="rgb(74, 85, 112)" x="38" y="250" width="26" height="30" rx="1"/>
<!-- TREES left -->
<rect fill="rgb(139, 94, 60)" x="194" y="268" width="8" height="26" rx="1"/>
<circle fill="rgb(74, 128, 64)" cx="198" cy="256" r="20"/>
<circle fill="rgb(90, 144, 80)" cx="185" cy="265" r="14"/>
<circle fill="rgb(90, 144, 80)" cx="211" cy="265" r="14"/>
<!-- TREES right -->
<rect fill="rgb(139, 94, 60)" x="473" y="268" width="8" height="26" rx="1"/>
<circle fill="rgb(74, 128, 64)" cx="477" cy="256" r="20"/>
<circle fill="rgb(90, 144, 80)" cx="464" cy="265" r="14"/>
<circle fill="rgb(90, 144, 80)" cx="490" cy="265" r="14"/>
<!-- DISPATCH UI tablet -->
<rect fill="rgb(30, 35, 64)" x="390" y="58" width="90" height="62" rx="6"/>
<rect fill="rgb(37, 42, 72)" x="393" y="62" width="84" height="52" rx="4"/>
<rect fill="rgb(79, 70, 229)" x="396" y="64" width="78" height="10" rx="2"/>
<text x="435" y="72" text-anchor="middle" font-family="sans-serif" font-size="6" fill="white" font-weight="600">DISPATCH LIVE</text>
<rect fill="rgb(42, 144, 80)" x="396" y="77" width="28" height="7" rx="2"/>
<text x="410" y="83" text-anchor="middle" font-family="sans-serif" font-size="6" fill="white">Active</text>
<rect fill="rgb(128, 128, 144)" x="426" y="77" width="46" height="5" rx="1"/>
<rect fill="rgb(128, 128, 144)" x="426" y="84" width="36" height="4" rx="1"/>
<rect fill="rgb(79, 70, 229)" x="396" y="94" width="38" height="12" rx="2"/>
<text x="415" y="103" text-anchor="middle" font-family="sans-serif" font-size="6" fill="white">▶ Assign job</text>
<line stroke="rgb(79,70,229)" x1="435" y1="120" x2="435" y2="110" stroke-dasharray="4 3" stroke-width="1.5"/>
</svg>
