<svg width="100%" viewBox="0 0 690 430" role="img" xmlns="http://www.w3.org/2000/svg">
<title>Energie et Technologie</title>
<desc>Illustration d'un réseau intelligent combinant panneaux solaires, serveurs, IOT et infrastructure énergétique</desc>
<!-- Background -->
<rect x="0" y="0" width="680" height="420" fill="rgb(232, 238, 248)"/>
<rect x="0" y="0" width="680" height="220" fill="rgb(208, 220, 240)"/>
<!-- Grid lines -->
<line x1="0" y1="60" x2="680" y2="60" stroke-width="0.8" stroke="rgb(192, 204, 224)"/>
<line x1="0" y1="120" x2="680" y2="120" stroke-width="0.8" stroke="rgb(192, 204, 224)"/>
<line x1="0" y1="180" x2="680" y2="180" stroke-width="0.8" stroke="rgb(192, 204, 224)"/>
<line x1="0" y1="240" x2="680" y2="240" stroke-width="0.8" stroke="rgb(192, 204, 224)"/>
<line x1="80" y1="0" x2="80" y2="420" stroke-width="0.8" stroke="rgb(192, 204, 224)"/>
<line x1="200" y1="0" x2="200" y2="420" stroke-width="0.8" stroke="rgb(192, 204, 224)"/>
<line x1="340" y1="0" x2="340" y2="420" stroke-width="0.8" stroke="rgb(192, 204, 224)"/>
<line x1="480" y1="0" x2="480" y2="420" stroke-width="0.8" stroke="rgb(192, 204, 224)"/>
<line x1="600" y1="0" x2="600" y2="420" stroke-width="0.8" stroke="rgb(192, 204, 224)"/>
<!-- Ground floor -->
<rect x="0" y="300" width="680" height="120" fill="rgb(224, 232, 248)"/>
<line x1="0" y1="300" x2="680" y2="300" stroke-width="1.5" stroke="rgb(192, 204, 224)"/>
<!-- SOLAR PANELS left -->
<line stroke="rgb(112,128,144)" x1="90" y1="300" x2="90" y2="230" stroke-width="4"/>
<line stroke="rgb(112,128,144)" x1="70" y1="300" x2="110" y2="300" stroke-width="4"/>
<rect x="44" y="192" width="100" height="56" rx="3" fill="rgb(184, 200, 224)"/>
<rect fill="rgb(26, 56, 96)" x="47" y="195" width="22" height="25" rx="1"/>
<rect fill="rgb(26, 56, 96)" x="71" y="195" width="22" height="25" rx="1"/>
<rect fill="rgb(26, 56, 96)" x="95" y="195" width="22" height="25" rx="1"/>
<rect fill="rgb(26, 56, 96)" x="119" y="195" width="22" height="25" rx="1"/>
<rect fill="rgb(26, 72, 120)" x="47" y="222" width="22" height="23" rx="1"/>
<rect fill="rgb(26, 72, 120)" x="71" y="222" width="22" height="23" rx="1"/>
<rect fill="rgb(26, 72, 120)" x="95" y="222" width="22" height="23" rx="1"/>
<rect fill="rgb(26, 72, 120)" x="119" y="222" width="22" height="23" rx="1"/>
<line stroke="rgb(128,192,255)" x1="50" y1="197" x2="67" y2="218" stroke-width="0.8" opacity="0.6"/>
<line stroke="rgb(128,192,255)" x1="74" y1="197" x2="91" y2="218" stroke-width="0.8" opacity="0.6"/>
<line stroke="rgb(128,192,255)" x1="98" y1="197" x2="115" y2="218" stroke-width="0.8" opacity="0.6"/>
<line stroke="rgb(128,192,255)" x1="122" y1="197" x2="139" y2="218" stroke-width="0.8" opacity="0.6"/>
<text x="94" y="286" text-anchor="middle" font-family="sans-serif" font-size="8" fill="rgb(96, 160, 208)" font-weight="600">SOLAIRE</text>
<text x="94" y="296" text-anchor="middle" font-family="sans-serif" font-size="7" fill="rgb(74, 112, 144)">12.4 kWh</text>
<!-- SECOND SOLAR ARRAY -->
<line stroke="rgb(112,128,144)" x1="220" y1="300" x2="220" y2="250" stroke-width="4"/>
<line stroke="rgb(112,128,144)" x1="200" y1="300" x2="240" y2="300" stroke-width="4"/>
<rect x="178" y="218" width="90" height="44" rx="3" fill="rgb(184, 200, 224)"/>
<rect fill="rgb(26, 56, 96)" x="181" y="221" width="18" height="18" rx="1"/>
<rect fill="rgb(26, 56, 96)" x="201" y="221" width="18" height="18" rx="1"/>
<rect fill="rgb(26, 56, 96)" x="221" y="221" width="18" height="18" rx="1"/>
<rect fill="rgb(26, 56, 96)" x="241" y="221" width="18" height="18" rx="1"/>
<rect fill="rgb(26, 72, 120)" x="181" y="241" width="18" height="18" rx="1"/>
<rect fill="rgb(26, 72, 120)" x="201" y="241" width="18" height="18" rx="1"/>
<rect fill="rgb(26, 72, 120)" x="221" y="241" width="18" height="18" rx="1"/>
<rect fill="rgb(26, 72, 120)" x="241" y="241" width="18" height="18" rx="1"/>
<!-- ENERGY TOWER / PYLON -->
<polygon fill="rgb(96, 112, 128)" points="330,160 350,160 344,300 336,300"/>
<polygon fill="rgb(80, 96, 112)" points="334,200 346,200 344,240 336,240"/>
<line stroke="rgb(80,96,112)" x1="320" y1="170" x2="360" y2="170" stroke-width="3"/>
<line stroke="rgb(80,96,112)" x1="325" y1="185" x2="355" y2="185" stroke-width="2.5"/>
<line stroke="rgb(64,80,96)" x1="310" y1="170" x2="330" y2="170" stroke-width="1.5"/>
<line stroke="rgb(64,80,96)" x1="350" y1="170" x2="370" y2="170" stroke-width="1.5"/>
<path d="M310 170 Q280 185 250 180" fill="none" stroke="rgb(160,184,208)" stroke-width="1.5"/>
<path d="M370 170 Q400 185 440 180" fill="none" stroke="rgb(160,184,208)" stroke-width="1.5"/>
<path d="M310 185 Q270 200 240 196" fill="none" stroke="rgb(160,184,208)" stroke-width="1.2"/>
<path d="M370 185 Q410 200 440 196" fill="none" stroke="rgb(160,184,208)" stroke-width="1.2"/>
<circle fill="rgb(240, 192, 48)" cx="340" cy="158" r="6"/>
<circle fill="rgb(255, 224, 96)" cx="340" cy="158" r="3"/>
<!-- SERVER RACK -->
<rect x="440" y="180" width="80" height="120" rx="4" fill="rgb(200, 212, 232)"/>
<rect x="445" y="185" width="70" height="14" rx="2" fill="rgb(221, 229, 245)"/>
<rect fill="rgb(79, 70, 229)" x="447" y="188" width="4" height="8" rx="1"/>
<rect fill="rgb(48, 176, 96)" x="453" y="190" width="36" height="4" rx="1"/>
<circle fill="rgb(48, 208, 128)" cx="504" cy="192" r="3"/>
<rect x="445" y="201" width="70" height="14" rx="2" fill="rgb(221, 229, 245)"/>
<rect fill="rgb(79, 70, 229)" x="447" y="204" width="4" height="8" rx="1"/>
<rect fill="rgb(48, 176, 96)" x="453" y="206" width="28" height="4" rx="1"/>
<circle fill="rgb(224, 64, 64)" cx="504" cy="208" r="3"/>
<rect x="445" y="217" width="70" height="14" rx="2" fill="rgb(221, 229, 245)"/>
<rect fill="rgb(79, 70, 229)" x="447" y="220" width="4" height="8" rx="1"/>
<rect fill="rgb(48, 176, 96)" x="453" y="222" width="42" height="4" rx="1"/>
<circle fill="rgb(48, 208, 128)" cx="504" cy="224" r="3"/>
<rect x="445" y="233" width="70" height="14" rx="2" fill="rgb(221, 229, 245)"/>
<rect fill="rgb(79, 70, 229)" x="447" y="236" width="4" height="8" rx="1"/>
<rect fill="rgb(48, 176, 96)" x="453" y="238" width="32" height="4" rx="1"/>
<circle fill="rgb(48, 208, 128)" cx="504" cy="240" r="3"/>
<rect x="445" y="249" width="70" height="14" rx="2" fill="rgb(221, 229, 245)"/>
<rect fill="rgb(79, 70, 229)" x="447" y="252" width="4" height="8" rx="1"/>
<rect fill="rgb(48, 176, 96)" x="453" y="254" width="38" height="4" rx="1"/>
<circle fill="rgb(240, 160, 48)" cx="504" cy="256" r="3"/>
<rect x="445" y="265" width="70" height="14" rx="2" fill="rgb(221, 229, 245)"/>
<rect fill="rgb(79, 70, 229)" x="447" y="268" width="4" height="8" rx="1"/>
<rect fill="rgb(48, 176, 96)" x="453" y="270" width="30" height="4" rx="1"/>
<circle fill="rgb(48, 208, 128)" cx="504" cy="272" r="3"/>
<text x="480" y="294" text-anchor="middle" font-family="sans-serif" font-size="7" fill="rgb(64, 96, 160)" font-weight="600">DATA CENTER</text>
<!-- IOT HUB -->
<rect x="578" y="220" width="72" height="80" rx="6" fill="rgb(204, 216, 238)"/>
<rect fill="rgb(79, 70, 229)" x="582" y="224" width="64" height="16" rx="3"/>
<text x="614" y="235" text-anchor="middle" font-family="sans-serif" font-size="7" fill="white" font-weight="600">IoT GATEWAY</text>
<circle fill="rgb(48, 208, 128)" cx="590" cy="252" r="5"/>
<circle fill="rgb(240, 160, 48)" cx="606" cy="252" r="5"/>
<circle fill="rgb(48, 208, 128)" cx="622" cy="252" r="5"/>
<circle fill="rgb(79, 70, 229)" cx="638" cy="252" r="5"/>
<text x="614" y="268" text-anchor="middle" font-family="sans-serif" font-size="7" fill="rgb(96, 160, 208)">24 devices live</text>
<rect fill="rgb(48, 56, 72)" x="582" y="272" width="64" height="20" rx="2"/>
<text x="614" y="285" text-anchor="middle" font-family="sans-serif" font-size="7" fill="rgb(64, 208, 144)">▲ 98.4% uptime</text>
<path fill="none" stroke="rgb(79,70,229)" d="M614 218 Q614 200 614 195" stroke-width="1" opacity="0.8"/>
<path fill="none" stroke="rgb(79,70,229)" d="M600 218 Q580 200 560 190" stroke-width="1" opacity="0.5"/>
<path fill="none" stroke="rgb(79,70,229)" d="M628 218 Q648 200 660 188" stroke-width="1" opacity="0.5"/>
<circle fill="rgb(79, 70, 229)" cx="614" cy="192" r="3"/>
<circle fill="rgb(79, 70, 229)" cx="558" cy="188" r="3"/>
<circle fill="rgb(79, 70, 229)" cx="662" cy="186" r="3"/>
<!-- ENERGY FLOW LINES -->
<path fill="none" stroke="rgb(240,192,48)" d="M148 220 Q220 190 330 168" stroke-width="2" stroke-dasharray="8 4" opacity="0.8"/>
<circle fill="rgb(240, 192, 48)" cx="200" cy="202" r="4" opacity="0.8"/>
<path fill="none" stroke="rgb(79,70,229)" d="M520 230 Q548 228 578 238" stroke-width="2" stroke-dasharray="6 4" opacity="0.7"/>
<!-- ENERGY DASHBOARD top center -->
<rect fill="rgb(14, 22, 40)" x="260" y="28" width="160" height="96" rx="8"/>
<rect fill="rgb(20, 30, 56)" x="264" y="32" width="152" height="82" rx="5"/>
<rect fill="rgb(79, 70, 229)" x="268" y="36" width="144" height="14" rx="3"/>
<text x="340" y="46" text-anchor="middle" font-family="sans-serif" font-size="8" fill="white" font-weight="600">ENERGY DASHBOARD</text>
<text x="340" y="62" text-anchor="middle" font-family="sans-serif" font-size="18" font-weight="600" fill="rgb(240, 192, 48)">47.2</text>
<text x="340" y="72" text-anchor="middle" font-family="sans-serif" font-size="8" fill="rgb(96, 160, 208)">kWh today</text>
<rect fill="rgb(79, 70, 229)" x="272" y="92" width="10" height="16" rx="1"/>
<rect fill="rgb(79, 70, 229)" x="284" y="88" width="10" height="20" rx="1"/>
<rect fill="rgb(48, 176, 96)" x="296" y="84" width="10" height="24" rx="1"/>
<rect fill="rgb(48, 176, 96)" x="308" y="82" width="10" height="26" rx="1"/>
<rect fill="rgb(240, 192, 48)" x="320" y="85" width="10" height="23" rx="1"/>
<rect fill="rgb(240, 192, 48)" x="332" y="80" width="10" height="28" rx="1"/>
<rect fill="rgb(48, 176, 96)" x="344" y="84" width="10" height="24" rx="1"/>
<rect fill="rgb(79, 70, 229)" x="356" y="90" width="10" height="18" rx="1"/>
<rect fill="rgb(79, 70, 229)" x="368" y="86" width="10" height="22" rx="1"/>
<rect fill="rgb(48, 176, 96)" x="380" y="83" width="10" height="25" rx="1"/>
<rect fill="rgb(224, 64, 64)" x="392" y="87" width="10" height="21" rx="1"/>
<!-- CITY SKYLINE -->
<rect x="0" y="240" width="30" height="60" fill="rgb(200, 212, 232)"/>
<rect x="32" y="220" width="24" height="80" fill="rgb(200, 212, 232)"/>
<rect x="600" y="230" width="30" height="70" fill="rgb(200, 212, 232)"/>
<rect x="634" y="210" width="24" height="90" fill="rgb(200, 212, 232)"/>
<rect x="658" y="224" width="22" height="76" fill="rgb(200, 212, 232)"/>
<rect fill="rgb(79, 70, 229)" x="6" y="248" width="6" height="4" rx="1" opacity="0.6"/>
<rect fill="rgb(240, 192, 48)" x="14" y="256" width="6" height="4" rx="1" opacity="0.6"/>
<rect fill="rgb(79, 70, 229)" x="36" y="228" width="6" height="4" rx="1" opacity="0.6"/>
<rect fill="rgb(48, 208, 128)" x="46" y="240" width="6" height="4" rx="1" opacity="0.6"/>
<rect fill="rgb(240, 192, 48)" x="608" y="238" width="6" height="4" rx="1" opacity="0.6"/>
<rect fill="rgb(79, 70, 229)" x="640" y="220" width="6" height="4" rx="1" opacity="0.6"/>
<rect fill="rgb(48, 208, 128)" x="650" y="232" width="6" height="4" rx="1" opacity="0.6"/>
</svg>
