<svg width="100%" viewBox="0 0 770 430" role="img" xmlns="http://www.w3.org/2000/svg">
<title>L'environnement</title>
<desc>Illustration d'un paysage naturel avec monitoring environnemental, capteurs, végétation et eau</desc>
<!-- Sky gradient layers -->
<rect x="0" y="0" width="680" height="260" fill="rgb(200, 232, 248)"/>
<ellipse cx="340" cy="0" rx="340" ry="120" fill="rgb(168, 208, 240)"/>
<!-- Sun -->
<circle fill="rgb(248, 216, 64)" cx="580" cy="60" r="36"/>
<circle fill="rgb(248, 232, 112)" cx="580" cy="60" r="26"/>
<line stroke="rgb(248,216,64)" x1="580" y1="14" x2="580" y2="5" stroke-width="2.5"/>
<line stroke="rgb(248,216,64)" x1="580" y1="106" x2="580" y2="115" stroke-width="2.5"/>
<line stroke="rgb(248,216,64)" x1="534" y1="60" x2="525" y2="60" stroke-width="2.5"/>
<line stroke="rgb(248,216,64)" x1="626" y1="60" x2="635" y2="60" stroke-width="2.5"/>
<line stroke="rgb(248,216,64)" x1="548" y1="28" x2="542" y2="22" stroke-width="2"/>
<line stroke="rgb(248,216,64)" x1="612" y1="28" x2="618" y2="22" stroke-width="2"/>
<line stroke="rgb(248,216,64)" x1="548" y1="92" x2="542" y2="98" stroke-width="2"/>
<line stroke="rgb(248,216,64)" x1="612" y1="92" x2="618" y2="98" stroke-width="2"/>
<!-- Clouds -->
<ellipse fill="rgb(232, 244, 255)" cx="140" cy="62" rx="50" ry="22"/>
<ellipse fill="rgb(232, 244, 255)" cx="178" cy="52" rx="40" ry="18"/>
<ellipse fill="rgb(232, 244, 255)" cx="105" cy="56" rx="32" ry="16"/>
<ellipse fill="rgb(232, 244, 255)" cx="360" cy="80" rx="42" ry="18"/>
<ellipse fill="rgb(232, 244, 255)" cx="394" cy="70" rx="32" ry="14"/>
<!-- Hills background -->
<ellipse cx="100" cy="240" rx="180" ry="90" fill="rgb(120, 184, 96)"/>
<ellipse cx="560" cy="250" rx="200" ry="100" fill="rgb(120, 184, 96)"/>
<ellipse cx="300" cy="260" rx="220" ry="80" fill="rgb(144, 200, 120)"/>
<!-- Ground -->
<rect x="0" y="260" width="680" height="160" fill="rgb(184, 216, 152)"/>
<rect x="0" y="290" width="680" height="130" fill="rgb(160, 200, 128)"/>
<!-- River -->
<ellipse cx="340" cy="330" rx="90" ry="28" fill="rgb(112, 184, 224)"/>
<ellipse cx="335" cy="326" rx="72" ry="18" fill="rgb(136, 200, 240)"/>
<line stroke="rgb(176,216,240)" x1="300" y1="325" x2="330" y2="323" stroke-width="2" opacity="0.6"/>
<line stroke="rgb(176,216,240)" x1="345" y1="330" x2="375" y2="328" stroke-width="1.5" opacity="0.4"/>
<!-- Path -->
<ellipse cx="340" cy="380" rx="60" ry="14" fill="rgb(208, 216, 192)"/>
<rect x="320" y="310" width="40" height="72" fill="rgb(208, 216, 192)"/>
<!-- TREES left cluster -->
<rect fill="rgb(107, 66, 38)" x="56" y="248" width="8" height="36" rx="2"/>
<circle fill="rgb(45, 122, 48)" cx="60" cy="232" r="26"/>
<circle fill="rgb(58, 144, 64)" cx="46" cy="244" r="18"/>
<circle fill="rgb(58, 144, 64)" cx="74" cy="244" r="18"/>
<rect fill="rgb(90, 56, 32)" x="110" y="254" width="7" height="30" rx="2"/>
<circle fill="rgb(45, 122, 48)" cx="114" cy="240" r="22"/>
<circle fill="rgb(58, 144, 64)" cx="102" cy="250" r="15"/>
<circle fill="rgb(58, 144, 64)" cx="126" cy="250" r="15"/>
<rect fill="rgb(107, 66, 38)" x="30" y="258" width="6" height="26" rx="2"/>
<circle fill="rgb(31, 96, 40)" cx="33" cy="246" r="18"/>
<!-- TREES right cluster -->
<rect fill="rgb(107, 66, 38)" x="574" y="248" width="8" height="36" rx="2"/>
<circle fill="rgb(45, 122, 48)" cx="578" cy="232" r="26"/>
<circle fill="rgb(58, 144, 64)" cx="564" cy="244" r="18"/>
<circle fill="rgb(58, 144, 64)" cx="592" cy="244" r="18"/>
<rect fill="rgb(90, 56, 32)" x="618" y="254" width="7" height="30" rx="2"/>
<circle fill="rgb(45, 122, 48)" cx="622" cy="240" r="22"/>
<circle fill="rgb(58, 144, 64)" cx="610" cy="250" r="15"/>
<circle fill="rgb(58, 144, 64)" cx="634" cy="250" r="15"/>
<rect fill="rgb(107, 66, 38)" x="646" y="260" width="6" height="24" rx="2"/>
<circle fill="rgb(31, 96, 40)" cx="649" cy="248" r="17"/>
<!-- TREES mid -->
<rect fill="rgb(107, 66, 38)" x="198" y="264" width="7" height="28" rx="2"/>
<circle fill="rgb(45, 122, 48)" cx="202" cy="250" r="20"/>
<circle fill="rgb(58, 144, 64)" cx="190" cy="260" r="13"/>
<rect fill="rgb(107, 66, 38)" x="454" y="264" width="7" height="28" rx="2"/>
<circle fill="rgb(45, 122, 48)" cx="458" cy="250" r="20"/>
<circle fill="rgb(58, 144, 64)" cx="470" cy="260" r="13"/>
<!-- ENV SENSOR STATION left -->
<rect fill="rgb(232, 238, 238)" x="140" y="252" width="28" height="48" rx="3"/>
<rect fill="rgb(74, 112, 96)" x="140" y="252" width="28" height="10" rx="3"/>
<rect fill="rgb(106, 176, 144)" x="143" y="262" width="22" height="6" rx="1"/>
<rect fill="rgb(106, 176, 144)" x="143" y="270" width="22" height="6" rx="1"/>
<rect fill="rgb(106, 176, 144)" x="143" y="278" width="22" height="6" rx="1"/>
<text x="154" y="305" text-anchor="middle" font-family="sans-serif" font-size="7" fill="rgb(58, 96, 80)" font-weight="600">CAPTEUR</text>
<line stroke="rgb(74,112,96)" x1="154" y1="252" x2="154" y2="238" stroke-width="1.5"/>
<line stroke="rgb(74,112,96)" x1="149" y1="244" x2="159" y2="244" stroke-width="1.5"/>
<circle fill="rgb(48, 192, 96)" cx="154" cy="238" r="3"/>
<!-- ENV SENSOR STATION right -->
<rect fill="rgb(232, 238, 238)" x="500" y="252" width="28" height="48" rx="3"/>
<rect fill="rgb(74, 112, 96)" x="500" y="252" width="28" height="10" rx="3"/>
<rect fill="rgb(106, 176, 144)" x="503" y="262" width="22" height="6" rx="1"/>
<rect fill="rgb(106, 176, 144)" x="503" y="270" width="22" height="6" rx="1"/>
<rect fill="rgb(106, 176, 144)" x="503" y="278" width="22" height="6" rx="1"/>
<text x="514" y="305" text-anchor="middle" font-family="sans-serif" font-size="7" fill="rgb(58, 96, 80)" font-weight="600">CAPTEUR</text>
<line stroke="rgb(74,112,96)" x1="514" y1="252" x2="514" y2="238" stroke-width="1.5"/>
<line stroke="rgb(74,112,96)" x1="509" y1="244" x2="519" y2="244" stroke-width="1.5"/>
<circle fill="rgb(48, 192, 96)" cx="514" cy="238" r="3"/>
<!-- MONITORING SCREEN -->
<rect fill="rgb(26, 40, 48)" x="282" y="52" width="116" height="78" rx="8"/>
<rect fill="rgb(30, 50, 64)" x="286" y="56" width="108" height="64" rx="5"/>
<rect fill="rgb(42, 144, 96)" x="290" y="60" width="100" height="12" rx="2"/>
<text x="340" y="69" text-anchor="middle" font-family="sans-serif" font-size="7" fill="white" font-weight="600">MONITORING ENV.</text>
<rect fill="rgb(48, 184, 112)" x="292" y="76" width="12" height="22" rx="1"/>
<rect fill="rgb(48, 184, 112)" x="307" y="82" width="12" height="16" rx="1"/>
<rect fill="rgb(240, 160, 48)" x="322" y="78" width="12" height="20" rx="1"/>
<rect fill="rgb(48, 184, 112)" x="337" y="74" width="12" height="24" rx="1"/>
<rect fill="rgb(48, 184, 112)" x="352" y="80" width="12" height="18" rx="1"/>
<rect fill="rgb(224, 64, 64)" x="367" y="86" width="12" height="12" rx="1"/>
<line stroke="rgb(74,96,112)" x1="292" y1="98" x2="382" y2="98" stroke-width="1"/>
<rect fill="rgb(37, 53, 69)" x="289" y="102" width="100" height="14" rx="2"/>
<text x="340" y="112" text-anchor="middle" font-family="sans-serif" font-size="7" fill="rgb(96, 208, 144)">CO₂ : 412 ppm — Air quality: Good</text>
<line stroke="rgb(42,144,96)" x1="154" y1="240" x2="290" y2="100" stroke-dasharray="5 3" stroke-width="1" opacity="0.7"/>
<line stroke="rgb(42,144,96)" x1="514" y1="240" x2="390" y2="100" stroke-dasharray="5 3" stroke-width="1" opacity="0.7"/>
<!-- WIND TURBINE -->
<line stroke="rgb(128,144,160)" x1="620" y1="260" x2="620" y2="160" stroke-width="4"/>
<line stroke="rgb(128,144,160)" x1="620" y1="160" x2="620" y2="120" stroke-width="3"/>
<line stroke="rgb(192,200,216)" x1="620" y1="140" x2="600" y2="115" stroke-width="3" stroke-linecap="round"/>
<line stroke="rgb(192,200,216)" x1="620" y1="140" x2="644" y2="118" stroke-width="3" stroke-linecap="round"/>
<line stroke="rgb(192,200,216)" x1="620" y1="140" x2="620" y2="108" stroke-width="3" stroke-linecap="round"/>
<circle fill="rgb(208, 216, 232)" cx="620" cy="140" r="5"/>
<!-- BIRDS -->
<path d="M220 90 Q224 85 228 90" fill="none" stroke="rgb(74,80,96)" stroke-width="1.5" stroke-linecap="round"/>
<path d="M234 82 Q238 77 242 82" fill="none" stroke="rgb(74,80,96)" stroke-width="1.5" stroke-linecap="round"/>
<path d="M248 95 Q252 90 256 95" fill="none" stroke="rgb(74,80,96)" stroke-width="1.5" stroke-linecap="round"/>
</svg>
